<?xml version="1.0" standalone="no"?>
<!DOCTYPE svg PUBLIC "-//W3C//DTD SVG 20010904//EN"
 "http://www.w3.org/TR/2001/REC-SVG-20010904/DTD/svg10.dtd">
<svg version="1.0" xmlns="http://www.w3.org/2000/svg"
 width="752.000000pt" height="752.000000pt" viewBox="0 0 752.000000 752.000000"
 preserveAspectRatio="xMidYMid meet">
<metadata>
Created by potrace 1.11, written by Peter Selinger 2001-2013
</metadata>
<g transform="translate(0.000000,752.000000) scale(0.100000,-0.100000)"
fill="#000000" stroke="none">
<path d="M3797 7434 c-1 -1 -20 -5 -43 -7 -56 -7 -181 -43 -286 -83 -91 -34
-345 -162 -392 -197 -6 -4 -60 -40 -121 -79 -93 -60 -314 -220 -351 -253 -39
-35 -72 -62 -90 -75 -25 -18 -148 -127 -248 -220 -119 -111 -339 -339 -421
-436 -55 -64 -94 -111 -110 -128 -6 -6 -26 -31 -45 -56 -19 -25 -40 -52 -47
-60 -41 -45 -253 -347 -253 -359 0 -5 -4 -11 -8 -13 -8 -3 -104 -162 -150
-247 -133 -248 -219 -473 -258 -676 -31 -162 -34 -325 -10 -440 17 -79 28
-121 36 -130 4 -5 9 -13 9 -18 4 -42 98 -190 163 -257 60 -62 166 -140 246
-181 36 -19 72 -38 78 -44 7 -5 29 -21 48 -35 34 -25 45 -49 51 -115 2 -16 5
-46 9 -65 10 -68 35 -243 41 -300 11 -92 15 -128 21 -165 3 -22 7 -58 9 -80 2
-22 6 -56 9 -75 3 -19 8 -72 11 -116 3 -45 7 -90 9 -100 2 -11 7 -71 11 -134
4 -63 10 -137 12 -165 2 -27 5 -392 6 -810 2 -739 3 -761 22 -795 30 -52 101
-116 185 -166 73 -43 313 -144 343 -144 8 0 31 -7 51 -15 20 -8 38 -15 41 -15
3 0 6 0 8 -1 1 0 9 -2 18 -4 9 -1 54 -12 100 -23 46 -11 98 -23 114 -26 17 -2
71 -12 120 -21 120 -21 132 -23 190 -30 28 -4 61 -8 75 -10 94 -14 253 -28
465 -41 219 -13 773 -7 955 11 19 2 67 6 105 10 92 8 121 11 178 19 26 3 68 9
95 12 50 6 82 11 122 19 13 2 42 7 65 10 22 4 68 13 103 20 34 8 77 17 95 20
29 6 67 15 182 47 67 18 218 70 246 84 15 7 29 10 33 7 3 -4 6 -2 6 4 0 9 23
20 40 20 3 0 24 12 47 26 24 15 47 27 53 27 5 0 10 5 10 10 0 6 4 10 10 10 28
0 133 111 153 160 12 32 14 82 11 277 -3 236 -9 384 -19 518 -3 39 -7 104 -10
145 -10 136 -15 194 -21 265 -10 120 -11 146 -19 285 -12 216 -7 590 10 760 2
19 6 62 9 95 11 109 22 212 31 275 5 40 17 136 20 163 2 28 60 77 155 131 148
85 253 181 334 304 29 44 71 124 68 129 -1 2 7 23 18 47 10 24 21 57 23 73 3
15 7 35 10 43 19 52 27 277 14 395 -6 53 -16 116 -31 180 -2 11 -9 43 -15 70
-19 81 -80 262 -128 375 -61 144 -182 383 -233 460 -6 8 -13 22 -17 30 -4 8
-41 67 -82 130 -42 63 -78 120 -80 125 -2 6 -7 12 -10 15 -3 3 -26 34 -50 70
-25 36 -47 67 -50 70 -4 3 -39 49 -80 103 -41 54 -79 104 -85 110 -6 7 -37 44
-70 82 -105 125 -189 216 -321 349 -110 110 -160 157 -279 261 -63 56 -177
145 -186 145 -5 0 -10 4 -10 9 0 19 -275 197 -418 270 -198 102 -317 133 -509
136 -79 1 -144 1 -146 -1z m228 -518 c233 -42 459 -132 648 -257 32 -22 62
-39 67 -39 5 0 10 -4 12 -8 2 -4 39 -35 83 -67 44 -33 85 -65 90 -71 6 -7 33
-31 60 -54 228 -192 522 -535 770 -900 30 -45 55 -85 55 -90 0 -4 4 -10 8 -12
11 -4 72 -97 72 -109 0 -5 5 -9 10 -9 6 0 10 -4 10 -9 0 -6 14 -30 30 -54 17
-25 30 -50 30 -56 0 -6 5 -11 10 -11 6 0 10 -4 10 -8 0 -5 33 -64 74 -133 41
-68 73 -125 71 -127 -2 -2 -38 8 -82 22 -43 15 -87 28 -98 31 -11 2 -38 9 -60
15 -44 11 -258 59 -290 65 -11 2 -36 7 -55 10 -19 3 -60 11 -90 16 -30 6 -68
12 -85 14 -16 3 -41 6 -55 9 -14 2 -63 9 -110 15 -47 7 -101 14 -120 17 -19 3
-53 8 -75 10 -22 2 -58 6 -80 9 -22 3 -62 8 -90 10 -27 2 -66 7 -85 10 -33 4
-91 10 -225 20 -33 3 -89 7 -125 10 -271 22 -506 30 -935 29 -368 0 -560 -5
-725 -19 -25 -2 -79 -6 -120 -10 -41 -3 -93 -8 -115 -11 -22 -3 -56 -8 -75
-10 -100 -11 -127 -14 -145 -18 -11 -2 -40 -7 -65 -11 -25 -3 -57 -8 -72 -11
-22 -3 -85 -16 -248 -50 -39 -8 -239 -65 -284 -80 -21 -8 -41 -12 -43 -10 -3
2 8 24 23 48 16 23 39 63 52 88 14 25 30 52 37 60 7 8 25 38 41 65 16 28 32
55 36 60 4 6 53 80 110 165 56 85 105 157 110 158 4 2 8 10 8 17 0 7 3 15 8
17 4 2 25 28 47 58 22 30 43 57 47 58 5 2 8 8 8 13 0 5 9 19 19 31 11 13 54
66 96 118 110 136 185 219 306 339 127 127 151 149 254 230 44 34 87 68 95 74
35 28 112 77 121 77 5 0 9 4 9 8 0 5 19 19 43 32 61 33 181 94 187 95 3 0 21
8 40 17 38 17 102 42 110 43 3 1 32 9 65 19 33 10 69 20 80 22 11 2 34 7 50
10 17 4 42 8 57 9 15 1 30 4 33 6 7 8 304 4 350 -5z"/>
</g>
</svg>
